<?xml version="1.0" encoding="utf-8"?>
<!-- Generator: Adobe Illustrator 23.0.3, SVG Export Plug-In . SVG Version: 6.00 Build 0)  -->
<svg version="1.1" id="Layer_1" xmlns="http://www.w3.org/2000/svg" xmlns:xlink="http://www.w3.org/1999/xlink" x="0px" y="0px"
	 viewBox="0 0 106.01 106.01" style="enable-background:new 0 0 106.01 106.01;" xml:space="preserve">
<style type="text/css">
	.st0{fill:#FFFFFF;stroke:#000000;stroke-miterlimit:10;}
	.st1{fill:none;stroke:#000000;stroke-width:0.25;stroke-miterlimit:10;}
	.st2{fill:none;stroke:#000000;stroke-miterlimit:10;}
</style>
<circle class="st0" cx="50.26" cy="45.97" r="24.96"/>
<g>
	<g>
		<path d="M35.33,25.85c0.08-3.02,0.76-7.24-1.11-9.87c-1.11-1.56-2.69-2.83-3.85-4.39c-0.88-1.19-1.64-2.17-2.9-2.99
			c-0.11,0.39-0.21,0.78-0.32,1.16c4.07-0.43,8.76-0.38,12.47,1.62c3.37,1.82,3.66,5.5,5.37,8.53c0.39,0.7,1.47,0.07,1.08-0.63
			c-1.89-3.37-2.13-6.97-5.82-8.98c-3.85-2.1-8.86-2.24-13.1-1.79c-0.61,0.06-0.86,0.81-0.32,1.16c1.94,1.26,3.54,3.92,5.06,5.77
			c2.55,3.1,2.28,6.54,2.18,10.41C34.06,26.65,35.31,26.65,35.33,25.85L35.33,25.85z"/>
	</g>
</g>
<g>
	<g>
		<path d="M46.75,20.92c0.6-2.82,1.56-5.47,3.09-7.93c1.45-2.33,3.38-4.23,4.58-6.71c-0.24,0.05-0.48,0.11-0.72,0.16
			c3.48,5.05,6.82,10.23,6.54,16.6c-0.01,0.12,0.71,0.03,0.72-0.19c0.28-6.37-3.06-11.56-6.54-16.6c-0.11-0.17-0.64,0-0.72,0.16
			c-1.2,2.47-3.14,4.4-4.58,6.71c-1.53,2.45-2.49,5.1-3.09,7.93C46,21.22,46.71,21.11,46.75,20.92L46.75,20.92z"/>
	</g>
</g>
<g>
	<g>
		<path d="M34.47,26.91c-5.35,0.03-10.33-1.3-15.23-3.34c-1.48-0.62-3.65-1.24-4.83-2.41c-1.53-1.39-1.72-2-0.57-1.81
			c0.33,1.16,0.66,2.31,0.99,3.47c2,6.92,4.23,13.83,10.37,18.13c0.17,0.12,0.79-0.17,0.68-0.25c-7.61-5.33-9.42-14.88-11.82-23.28
			c-0.05-0.17-0.62,0.04-0.69,0.12c-4.83,6.1,17.24,9.68,20.62,9.66C34.16,27.21,34.83,26.91,34.47,26.91L34.47,26.91z"/>
	</g>
</g>
<g>
	<g>
		<path d="M25.1,42.69c-6.56,1.29-13.11,1.81-19.79,1.59c-0.07,0-0.72,0.16-0.58,0.27c5.09,3.57,14.08,11.82,20.88,8.52
			c0.43-0.21-0.25-0.17-0.41-0.09c-3.78,1.83-8.34-1.27-11.49-3.15c-0.98-0.59-7.38-3.93-7.32-5.21c-0.04,0.7,17.16-1.39,18.58-1.67
			C25.24,42.89,25.6,42.59,25.1,42.69L25.1,42.69z"/>
	</g>
</g>
<g>
	<g>
		<path d="M26.19,54.39c-2.89,2.11-6.04,2.47-9.16,3.87c-2.62,1.17-4.83,3.59-8.04,3.14c-0.13-0.02-0.66,0.04-0.66,0.23
			c-0.01,4.8,6.12,7.03,10.23,6.15c4.76-1.02,7.12-6.05,10.83-8.72c0.14-0.1-0.51-0.03-0.65,0.07c-4.34,3.12-6.93,9.66-13.6,8.24
			c-1.61-0.34-8.4-3.56-5.2-5.53c0.38-0.23,1.69-0.35,2.24-0.56c2.23-0.84,4.11-2.45,6.33-3.37c2.91-1.2,5.75-1.7,8.33-3.59
			C26.98,54.22,26.33,54.29,26.19,54.39L26.19,54.39z"/>
	</g>
</g>
<g>
	<g>
		<path d="M28.78,60.9c-0.29,4.49,0.22,8.77-4.37,11.47c-3.41,2.01-7.78,2.63-11.65,2.86c-0.16,0.01-0.61,0.27-0.32,0.43
			c3.34,1.92,8.48,7.16,12.11,3.43c2.51-2.58,2.74-6.41,5.58-8.81c2.01-1.7,4.33-2.36,5.57-4.83c0.17-0.34-0.56-0.31-0.69-0.06
			c-1.79,3.53-6.21,4.31-8.1,8.01c-1.55,3.04-3.11,6.7-7.31,5.67c-1.19-0.29-2.61-1.43-3.67-2.11c-1.98-1.28-2.23-1.03-0.12-1.53
			c3.47-0.82,7.17-1.3,10.2-3.36c3.82-2.61,3.23-7.05,3.5-11.24C29.54,60.49,28.8,60.61,28.78,60.9L28.78,60.9z"/>
	</g>
</g>
<g>
	<g>
		<path d="M61.06,23.22c4.55-4.2,10.08-6.62,15.71-9.01c0.91-0.38,8.9-3.82,8.57-4.49c0.88,1.79-4.24,7.17-5.23,8.08
			c-1.71,1.58-3.68,2.72-5.68,3.89c-3.25,1.9-6.19,3.73-8.14,7.05c-0.19,0.33,0.54,0.3,0.68,0.05c3.12-5.33,9.29-6.75,13.67-10.7
			c2.93-2.64,4.77-6.04,5.8-9.81c0.09-0.32-0.56-0.18-0.66-0.05c-3.54,4.33-10.31,5.87-15.23,8.21c-3.7,1.75-7.07,3.83-10.09,6.62
			C60.14,23.35,60.85,23.42,61.06,23.22L61.06,23.22z"/>
	</g>
</g>
<g>
	<g>
		<path d="M69.03,29.86c6.91,0.18,11.45-5.14,15.78-9.79c0.63-0.67,1.33-1.54,2.1-2.04c0.85-0.3,1.7-0.61,2.54-0.91
			c-0.37,0.53-0.71,1.08-1.01,1.65c-1.06,1.9-1.82,3.93-2.65,5.94c-2.37,5.74-5.65,9.3-11.13,12.26c-0.3,0.16,0.42,0.09,0.55,0.02
			c3.87-2.09,7.22-4.36,9.4-8.28c2.34-4.19,3.39-8.86,6.32-12.74c0.09-0.12-0.38-0.05-0.39-0.05c-8.57,2.42-10.73,13.92-21.06,13.65
			C69.35,29.56,68.68,29.85,69.03,29.86L69.03,29.86z"/>
	</g>
</g>
<g>
	<g>
		<path d="M35.26,67.01c0.17,4.72,0.23,9.32-0.57,13.98c-0.55,3.22-1.2,6.3-0.98,9.59c0.02,0.23,0.5,0.1,0.59,0.03
			c3.22-2.55,8.51-5.3,10.74-8.88c1.69-2.71,1.14-6.97,1.34-10.02c0.02-0.32-0.71-0.19-0.73,0.08c-0.23,3.41,0.2,7.97-2.06,10.8
			c-1.29,1.62-3.68,2.96-5.36,4.29c-2.11,1.67-3.58,3.62-3.77-0.41c-0.15-3.12,1.25-6.66,1.5-9.79c0.26-3.28,0.13-6.57,0.02-9.85
			C35.98,66.56,35.25,66.71,35.26,67.01L35.26,67.01z"/>
	</g>
</g>
<g>
	<g>
		<path d="M47.74,71.91c3.13,6.41,6.86,12.4,11.24,18.03c0.16,0.2,0.69,0.09,0.7-0.19c0.22-4.83,0.76-9.21,2.24-13.82
			c0.98-3.07,1.82-5.86,1.33-9.1c-0.05-0.32-0.78-0.15-0.72,0.19c0.59,3.9-0.73,6.71-1.82,10.39c-0.45,1.51-0.85,3-1.11,4.56
			c-0.24,1.43,0.13,4.25-0.53,5.49c-0.8,1.5-0.85,0.33-1.88-1.08c-0.96-1.32-1.88-2.67-2.77-4.04c-2.21-3.41-4.17-6.96-5.95-10.62
			C48.32,71.41,47.6,71.62,47.74,71.91L47.74,71.91z"/>
	</g>
</g>
<g>
	<g>
		<path d="M63.38,67.55c5.55,5.59,13.96,13.5,22.5,12.32c0.12-0.02,0.5-0.16,0.39-0.36c-2.17-4.46-6.65-6.68-8.29-11.69
			c-1.49-4.57-0.44-9.51-4.04-13.19c-0.23-0.24-0.92,0.06-0.66,0.32c3.46,3.54,2.51,7.99,3.74,12.36c0.83,2.95,2.42,5.43,4.49,7.67
			c1.1,1.19,4.97,3.06,1.25,4.49c-1.8,0.69-6.14-2.41-7.48-3.22c-4.14-2.5-7.84-5.6-11.24-9.02C63.81,67,63.13,67.29,63.38,67.55
			L63.38,67.55z"/>
	</g>
</g>
<g>
	<g>
		<path d="M74.17,37.98c5,1.91,9.99,3.83,14.99,5.74c2.65,1.01,5.29,2.03,7.94,3.04c1.14,0.44,2.45,0.77,3.53,1.35
			c4.12,2.2,3.51,2.17-2.32,4.58c-4.71,1.95-5.13,2.31-9.36,1.58c-1.13-0.19-2.25-0.46-3.38-0.68c-1.8-0.36-3.63-0.78-5.47-0.81
			c-0.84-0.01-5.33,1.03-5.39,0.27c-0.01-0.14-0.74-0.01-0.72,0.19c0.03,0.35,0.06,0.7,0.09,1.05c0.01,0.15,0.51-0.02,0.57-0.05
			c8.96-4.66,23.84,7.16,30.17-4.99c0.02-0.05-0.03-0.07-0.06-0.08c-9.99-3.83-19.99-7.65-29.98-11.48
			C74.6,37.63,73.95,37.89,74.17,37.98L74.17,37.98z"/>
	</g>
</g>
<g>
	<g>
		<path d="M36.89,49.41c2.65,4.29,8.23,12.34,14.21,11.61c7.76-0.95,8.07-12.19,13.66-15.96c0.41-0.27-0.19-0.51-0.48-0.32
			c-3.86,2.6-4.5,6.44-6.85,10.17c-0.25,0.45-0.5,0.89-0.74,1.34c-3.19,1.06-6.37,2.13-9.56,3.19c-1.19-0.42-2.72-2.1-3.61-2.93
			c-2.38-2.22-4.27-4.65-5.97-7.41C37.39,48.83,36.7,49.09,36.89,49.41L36.89,49.41z"/>
	</g>
</g>
<g>
	<g>
		<path d="M38.18,39.09c0.15-2.93,2.92-6,5.85-3.67c0.98,0.78,1.56,1.72,2.9,1.79c0.32,0.02,0.75-0.45,0.26-0.48
			c-1.49-0.08-2.19-1.71-3.45-2.3c-0.93-0.44-2.02-0.43-2.99-0.12c-2.13,0.67-3.19,2.73-3.3,4.85
			C37.43,39.5,38.17,39.38,38.18,39.09L38.18,39.09z"/>
	</g>
</g>
<g>
	<g>
		<path d="M52.92,35.66c-0.07-1.88,0.92-3.39,2.78-3.83c1.79-0.42,3.27,0.28,4.77,1.19c0.2,0.12,0.87-0.17,0.58-0.35
			c-1.81-1.11-4-1.99-6.1-1.16c-1.79,0.71-2.82,2.45-2.75,4.35C52.2,36.09,52.93,35.94,52.92,35.66L52.92,35.66z"/>
	</g>
</g>
<g>
	<g>
		<path d="M27.46,82.19c-0.29,2.78-0.45,5.61-0.3,8.4c0.06,1,0.15,2.31,1.47,1.8c1.15-0.45,1.51-2.04,1.47-3.13
			c-0.1-2.53-1.93-4.59-2.57-6.98c-0.06-0.22-0.78-0.03-0.72,0.19c0.58,2.16,3.73,6.01,2.4,8.33c-0.09,0.54-0.5,0.81-1.22,0.8
			c-0.07-0.4-0.1-0.8-0.09-1.2c-0.04-0.76-0.04-1.52-0.04-2.28c0-2.02,0.13-4.03,0.34-6.03C28.2,81.83,27.48,81.97,27.46,82.19
			L27.46,82.19z"/>
	</g>
</g>
<g>
	<g>
		<path d="M46.69,87.05c-0.01,1.12-0.02,2.24-0.03,3.36c-0.01,0.8-0.14,1.71,0.07,2.5c0.24,0.89,0.99,1.25,1.86,1.08
			c3.37-0.69-0.38-4.72-1.25-6c-0.13-0.19-0.83,0.04-0.67,0.28c0.57,0.85,1.15,1.7,1.72,2.54c0.32,0.47,0.77,0.96,0.89,1.53
			c0.24,1.1-1.52,1.54-1.83,0.38c-0.21-0.78-0.08-1.7-0.07-2.5c0.01-1.12,0.02-2.24,0.03-3.36C47.42,86.65,46.7,86.78,46.69,87.05
			L46.69,87.05z"/>
	</g>
</g>
<g>
	<g>
		<path d="M65.81,77.39c0.1,1.65-0.66,3.64,0.28,5.17c0.53,0.87,1.42,1.13,2.37,0.87c3.47-0.94-1.34-5.02-2.43-6.07
			c-0.14-0.14-0.81,0.13-0.68,0.25c0.79,0.77,1.56,1.57,2.28,2.4c0.4,0.47,0.98,1,1.22,1.57c0.35,0.8,0.1,2.03-1.25,1.51
			c-2.09-0.82-0.98-4.3-1.08-5.89C66.52,77.04,65.79,77.17,65.81,77.39L65.81,77.39z"/>
	</g>
</g>
<g>
	<g>
		<path d="M20.43,89.47c-0.09,2.38-0.37,4.83-0.29,7.21c0.03,0.92,0.32,1.71,1.38,1.41c1.02-0.29,1.29-1.42,1.45-2.34
			c0.34-2.02-0.14-4-1.18-5.74c-0.1-0.16-0.77,0.12-0.72,0.19c0.66,1.1,1.12,2.28,1.25,3.57c0.09,0.93,0.21,3.75-0.93,3.61
			c-0.77-0.09-0.5-0.89-0.48-1.54c0.02-0.66,0.05-1.31,0.08-1.97c0.06-1.53,0.12-3.06,0.18-4.59C21.16,89.2,20.44,89.28,20.43,89.47
			L20.43,89.47z"/>
	</g>
</g>
<g>
	<g>
		<path d="M35.88,97.42c-0.31,1.1-0.56,2.2-0.71,3.34c-0.1,0.81-0.33,1.93-0.11,2.74c0.32,1.22,1.62,1.2,2.58,0.75
			c1.08-0.51,1.73-1.66,1.75-2.84c0.03-1.76-1.3-3.12-2.73-3.94c-0.19-0.11-0.81,0.18-0.68,0.26c1.8,1.04,3.41,3.08,2.35,5.22
			c-0.56,1.13-2.45,1.41-2.59-0.02c-0.06-0.58,0.04-1.24,0.09-1.8c0.13-1.3,0.4-2.57,0.76-3.82C36.66,97.12,35.94,97.22,35.88,97.42
			L35.88,97.42z"/>
	</g>
</g>
<g>
	<g>
		<path d="M56.65,94.48c-0.16,1.59-0.78,3.53,0.19,5c0.58,0.88,1.73,1.33,2.74,0.93c1.05-0.42,1.32-1.51,1.02-2.53
			c-0.5-1.69-2.3-2.46-3-4.03c-0.14-0.31-0.86-0.1-0.72,0.19c0.74,1.67,2.89,2.57,3.1,4.48c0.12,1.06-0.79,1.89-1.83,1.28
			c-0.59-0.35-0.87-0.99-1.01-1.63c-0.27-1.22,0.14-2.53,0.26-3.75C57.41,94.06,56.68,94.17,56.65,94.48L56.65,94.48z"/>
	</g>
</g>
<g>
	<g>
		<path d="M72.38,88c-0.68,1.93-5.05,12.09-0.32,11.66c4.87-0.45,2.08-8.14,1.25-10.65c-0.08-0.24-0.8-0.03-0.72,0.19
			c0.5,1.52,1.01,3.05,1.29,4.63c0.16,0.88,0.3,1.83,0.22,2.73c-0.03,0.4-0.1,0.78-0.23,1.16c-2.29,1.46-3.36,1.42-3.23-0.1
			c-0.23-1.43,0.54-3.39,0.9-4.76c0.45-1.68,0.97-3.32,1.55-4.96C73.19,87.67,72.47,87.76,72.38,88L72.38,88z"/>
	</g>
</g>
<g>
	<g>
		<path d="M83.08,83.7c0.43,1.8-0.78,3.94,0.22,5.63c0.5,0.85,1.53,1.22,2.47,0.89c3.2-1.15-1.43-6.3-2.47-7.42
			c-0.21-0.23-0.9,0.06-0.67,0.31c0.76,0.82,1.52,1.64,2.15,2.56c0.37,0.55,0.7,1.12,0.93,1.75c0.33,0.89,0.44,1.06-0.31,1.76
			c-0.34,0.69-0.74,0.76-1.19,0.2c-0.23-0.28-0.38-0.59-0.46-0.94c-0.17-0.6-0.09-1.25-0.02-1.85c0.13-1.07,0.32-2.03,0.07-3.09
			C83.73,83.19,83.01,83.38,83.08,83.7L83.08,83.7z"/>
	</g>
</g>
<g>
	<g>
		<path d="M82.13,95.26c-0.58,2.07-1.81,8.75,2.37,8.16c1.09-0.15,1.8-1.01,1.82-2.11c0.03-1.96-2.14-3.74-3.29-5.09
			c-0.16-0.19-0.86,0.07-0.67,0.28c0.81,0.95,1.72,1.88,2.44,2.91c0.36,0.5,0.69,1.07,0.78,1.69c0.16,1.19-0.94,2.31-2.19,1.53
			c-2.16-1.35-1.07-5.54-0.53-7.46C82.93,94.91,82.2,95.01,82.13,95.26L82.13,95.26z"/>
	</g>
</g>
<g>
	<line class="st1" x1="87.62" y1="35.76" x2="97.29" y2="26.5"/>
	<line class="st1" x1="87.62" y1="26.5" x2="97.29" y2="35.76"/>
	<line class="st1" x1="92.45" y1="24.64" x2="92.45" y2="37.83"/>
	<line class="st1" x1="86.43" y1="31.38" x2="98.73" y2="31.13"/>
	<g>
		<g>
			<path d="M97.35,29.14c-0.21-1.09-0.77-2.04-1.63-2.75c-0.19-0.16-0.86,0.12-0.67,0.28c0.83,0.69,1.37,1.6,1.58,2.67
				C96.67,29.57,97.4,29.4,97.35,29.14L97.35,29.14z"/>
		</g>
	</g>
	<g>
		<g>
			<path d="M90.54,27.22c0.99,0.14,1.97,0.08,2.94-0.16c0.43-0.11,0.34-0.45-0.09-0.34c-0.79,0.2-1.59,0.24-2.4,0.13
				c-0.15-0.02-0.41,0.01-0.51,0.14C90.4,27.08,90.37,27.19,90.54,27.22L90.54,27.22z"/>
		</g>
	</g>
	<g>
		<g>
			<path d="M86.12,29.25c1.61-0.72,3.01-1.78,4.13-3.14c0.29-0.35-0.41-0.41-0.6-0.18c-1.05,1.27-2.34,2.26-3.84,2.94
				C85.36,29.08,85.76,29.41,86.12,29.25L86.12,29.25z"/>
		</g>
	</g>
	<g>
		<g>
			<path d="M87.74,29.98c0,0.89,0,1.77,0,2.66c0,0.38,0.73,0.28,0.73-0.05c0-0.89,0-1.77,0-2.66
				C88.47,29.54,87.74,29.64,87.74,29.98L87.74,29.98z"/>
		</g>
	</g>
	<g>
		<g>
			<path d="M86.9,34.55c0.81,0.13,1.62,0.27,2.43,0.4c0.2,0.03,0.85-0.29,0.45-0.36c-0.81-0.13-1.62-0.27-2.43-0.4
				C87.15,34.16,86.51,34.49,86.9,34.55L86.9,34.55z"/>
		</g>
	</g>
	<g>
		<g>
			<path d="M90.78,35.92c1.52,0.12,3.02,0.05,4.52-0.22c0.33-0.06,0.61-0.46,0.11-0.37c-1.39,0.25-2.77,0.33-4.18,0.22
				C91.03,35.53,90.39,35.89,90.78,35.92L90.78,35.92z"/>
		</g>
	</g>
	<g>
		<g>
			<path d="M94.48,34.79c1.12-0.41,2.08-1.13,2.77-2.1c0.18-0.25-0.54-0.18-0.67,0c-0.6,0.85-1.4,1.48-2.37,1.83
				C93.73,34.69,94.16,34.9,94.48,34.79L94.48,34.79z"/>
		</g>
	</g>
</g>
<g>
	<line class="st1" x1="85.87" y1="70.49" x2="95.53" y2="61.22"/>
	<line class="st1" x1="85.87" y1="61.22" x2="95.53" y2="70.49"/>
	<line class="st1" x1="90.7" y1="59.37" x2="90.7" y2="72.56"/>
	<line class="st1" x1="84.67" y1="66.11" x2="96.98" y2="65.86"/>
	<g>
		<g>
			<path d="M95.59,63.87c-0.22-1.13-0.81-2.1-1.69-2.83c-0.27-0.22-0.89,0.16-0.55,0.44c0.81,0.67,1.32,1.56,1.52,2.59
				C94.94,64.42,95.66,64.23,95.59,63.87L95.59,63.87z"/>
		</g>
	</g>
	<g>
		<g>
			<path d="M88.78,61.93c0.99,0.14,1.97,0.07,2.94-0.17c0.43-0.11,0.35-0.41-0.08-0.3c-0.8,0.2-1.59,0.23-2.4,0.12
				C89.04,61.56,88.39,61.88,88.78,61.93L88.78,61.93z"/>
		</g>
	</g>
	<g>
		<g>
			<path d="M84.36,63.98c1.61-0.72,3.01-1.78,4.13-3.14c0.29-0.35-0.41-0.41-0.6-0.18c-1.05,1.27-2.34,2.26-3.84,2.94
				C83.6,63.81,84.01,64.14,84.36,63.98L84.36,63.98z"/>
		</g>
	</g>
	<g>
		<g>
			<path d="M85.98,64.72c0,0.89,0,1.77,0,2.66c0,0.35,0.73,0.22,0.73-0.07c0-0.89,0-1.77,0-2.66C86.71,64.3,85.98,64.43,85.98,64.72
				L85.98,64.72z"/>
		</g>
	</g>
	<g>
		<g>
			<path d="M85.24,69.36c0.81,0.13,1.62,0.27,2.43,0.4c0.35,0.06,0.74-0.43,0.26-0.51c-0.81-0.13-1.62-0.27-2.43-0.4
				C85.15,68.79,84.76,69.28,85.24,69.36L85.24,69.36z"/>
		</g>
	</g>
	<g>
		<g>
			<path d="M89.11,70.68c1.49,0.12,2.97,0.04,4.44-0.22c0.35-0.06,0.59-0.52,0.09-0.43c-1.41,0.26-2.82,0.33-4.26,0.22
				C89.09,70.22,88.62,70.64,89.11,70.68L89.11,70.68z"/>
		</g>
	</g>
	<g>
		<g>
			<path d="M92.74,69.57c1.13-0.41,2.07-1.15,2.76-2.13c0.21-0.3-0.52-0.28-0.69-0.05c-0.6,0.84-1.41,1.46-2.38,1.81
				c-0.13,0.05-0.27,0.2-0.18,0.34C92.35,69.68,92.61,69.61,92.74,69.57L92.74,69.57z"/>
		</g>
	</g>
</g>
<g>
	<line class="st1" x1="5.2" y1="37.47" x2="14.86" y2="28.21"/>
	<line class="st1" x1="5.2" y1="28.21" x2="14.86" y2="37.47"/>
	<line class="st1" x1="10.03" y1="26.35" x2="10.03" y2="39.55"/>
	<line class="st1" x1="4" y1="33.1" x2="16.31" y2="32.84"/>
	<g>
		<g>
			<path d="M14.93,30.86c-0.22-1.12-0.81-2.09-1.69-2.82c-0.24-0.2-0.88,0.15-0.56,0.41c0.81,0.67,1.32,1.57,1.52,2.6
				C14.27,31.38,15,31.2,14.93,30.86L14.93,30.86z"/>
		</g>
	</g>
	<g>
		<g>
			<path d="M8.22,29.02c0.97,0.13,1.92,0.08,2.87-0.16c0.45-0.11,0.31-0.64-0.14-0.53c-0.82,0.21-1.64,0.25-2.48,0.13
				C8.1,28.42,7.74,28.96,8.22,29.02L8.22,29.02z"/>
		</g>
	</g>
	<g>
		<g>
			<path d="M3.68,30.9c1.63-0.73,3.05-1.79,4.19-3.17c0.18-0.22-0.53-0.15-0.67,0.01C6.17,29,4.89,29.99,3.41,30.66
				C2.95,30.86,3.38,31.04,3.68,30.9L3.68,30.9z"/>
		</g>
	</g>
	<g>
		<g>
			<path d="M5.32,31.77c0,0.89,0,1.77,0,2.66c0,0.1,0.72,0,0.72-0.19c0-0.89,0-1.77,0-2.66C6.05,31.48,5.32,31.57,5.32,31.77
				L5.32,31.77z"/>
		</g>
	</g>
	<g>
		<g>
			<path d="M4.41,36.22c0.81,0.13,1.62,0.27,2.43,0.4c0.15,0.03,0.37-0.02,0.51-0.1c0.05-0.03,0.26-0.14,0.09-0.17
				c-0.81-0.13-1.62-0.27-2.43-0.4c-0.15-0.03-0.37,0.02-0.51,0.1C4.46,36.08,4.24,36.19,4.41,36.22L4.41,36.22z"/>
		</g>
	</g>
	<g>
		<g>
			<path d="M8.46,37.71c1.53,0.12,3.03,0.04,4.54-0.24c0.46-0.08,0.32-0.57-0.13-0.49c-1.38,0.25-2.76,0.31-4.16,0.21
				C8.36,37.16,7.97,37.67,8.46,37.71L8.46,37.71z"/>
		</g>
	</g>
	<g>
		<g>
			<path d="M12.08,36.57c1.13-0.41,2.07-1.15,2.76-2.13c0.22-0.31-0.52-0.31-0.69-0.07c-0.59,0.84-1.42,1.45-2.38,1.8
				c-0.13,0.05-0.27,0.21-0.18,0.35C11.69,36.68,11.94,36.61,12.08,36.57L12.08,36.57z"/>
		</g>
	</g>
</g>
<g>
	<line class="st1" x1="14.14" y1="15.44" x2="23.8" y2="6.18"/>
	<line class="st1" x1="14.14" y1="6.18" x2="23.8" y2="15.44"/>
	<line class="st1" x1="18.97" y1="4.32" x2="18.97" y2="17.52"/>
	<line class="st1" x1="12.94" y1="11.07" x2="25.25" y2="10.81"/>
	<g>
		<g>
			<path d="M23.87,8.83c-0.22-1.12-0.81-2.09-1.69-2.82c-0.24-0.2-0.88,0.15-0.56,0.41c0.81,0.67,1.32,1.57,1.52,2.6
				C23.2,9.35,23.93,9.16,23.87,8.83L23.87,8.83z"/>
		</g>
	</g>
	<g>
		<g>
			<path d="M17.16,6.98c0.96,0.13,1.92,0.08,2.86-0.16c0.45-0.11,0.31-0.62-0.14-0.51c-0.82,0.21-1.64,0.25-2.48,0.13
				C17.04,6.4,16.67,6.92,17.16,6.98L17.16,6.98z"/>
		</g>
	</g>
	<g>
		<g>
			<path d="M12.63,8.91c1.64-0.74,3.04-1.81,4.18-3.19c0.21-0.26-0.52-0.23-0.68-0.03c-1.03,1.25-2.32,2.23-3.8,2.89
				C11.88,8.79,12.29,9.06,12.63,8.91L12.63,8.91z"/>
		</g>
	</g>
	<g>
		<g>
			<path d="M14.25,9.67c0,0.89,0,1.77,0,2.66c0,0.36,0.73,0.25,0.73-0.06c0-0.89,0-1.77,0-2.66C14.99,9.24,14.25,9.36,14.25,9.67
				L14.25,9.67z"/>
		</g>
	</g>
	<g>
		<g>
			<path d="M13.52,14.33c0.81,0.13,1.62,0.27,2.43,0.4c0.36,0.06,0.73-0.46,0.25-0.54c-0.81-0.13-1.62-0.27-2.43-0.4
				C13.4,13.73,13.03,14.25,13.52,14.33L13.52,14.33z"/>
		</g>
	</g>
	<g>
		<g>
			<path d="M17.38,15.64c1.49,0.12,2.97,0.04,4.44-0.22c0.36-0.07,0.58-0.53,0.09-0.44c-1.41,0.26-2.82,0.33-4.26,0.22
				C17.35,15.17,16.9,15.6,17.38,15.64L17.38,15.64z"/>
		</g>
	</g>
	<g>
		<g>
			<path d="M20.92,14.59c1.14-0.42,2.11-1.12,2.81-2.11c0.27-0.38-0.41-0.5-0.61-0.22c-0.58,0.83-1.37,1.48-2.33,1.83
				C20.36,14.24,20.48,14.75,20.92,14.59L20.92,14.59z"/>
		</g>
	</g>
</g>
<g>
	<line class="st1" x1="3.93" y1="89.48" x2="13.59" y2="80.22"/>
	<line class="st1" x1="3.93" y1="80.22" x2="13.59" y2="89.48"/>
	<line class="st1" x1="8.76" y1="78.36" x2="8.76" y2="91.55"/>
	<line class="st1" x1="2.73" y1="85.1" x2="15.04" y2="84.85"/>
	<g>
		<g>
			<path d="M13.66,82.86c-0.21-1.09-0.77-2.05-1.63-2.76c-0.2-0.17-0.88,0.12-0.67,0.29c0.83,0.69,1.37,1.6,1.58,2.66
				C12.99,83.31,13.71,83.14,13.66,82.86L13.66,82.86z"/>
		</g>
	</g>
	<g>
		<g>
			<path d="M6.84,80.9c0.99,0.14,1.97,0.06,2.94-0.18c0.42-0.11,0.36-0.35-0.06-0.24c-0.8,0.2-1.6,0.22-2.41,0.11
				C7.14,80.57,6.48,80.85,6.84,80.9L6.84,80.9z"/>
		</g>
	</g>
	<g>
		<g>
			<path d="M2.49,82.85c1.6-0.72,2.99-1.77,4.11-3.12c0.16-0.2-0.54-0.11-0.66,0.03c-1.06,1.28-2.35,2.28-3.87,2.96
				C1.62,82.91,2.3,82.93,2.49,82.85L2.49,82.85z"/>
		</g>
	</g>
	<g>
		<g>
			<path d="M4.05,83.77c0,0.89,0,1.77,0,2.66c0,0.2,0.72,0.07,0.72-0.19c0-0.89,0-1.77,0-2.66C4.78,83.37,4.05,83.5,4.05,83.77
				L4.05,83.77z"/>
		</g>
	</g>
	<g>
		<g>
			<path d="M3.2,88.25c0.81,0.13,1.62,0.27,2.43,0.4c0.18,0.03,0.84-0.26,0.46-0.32c-0.81-0.13-1.62-0.27-2.43-0.4
				C3.49,87.9,2.83,88.19,3.2,88.25L3.2,88.25z"/>
		</g>
	</g>
	<g>
		<g>
			<path d="M7.17,89.66c1.49,0.12,2.97,0.04,4.44-0.23c0.34-0.06,0.6-0.49,0.1-0.4c-1.41,0.26-2.82,0.33-4.26,0.22
				C7.18,89.22,6.69,89.62,7.17,89.66L7.17,89.66z"/>
		</g>
	</g>
	<g>
		<g>
			<path d="M10.71,88.62c1.14-0.42,2.11-1.12,2.81-2.11c0.26-0.38-0.41-0.48-0.61-0.21c-0.58,0.83-1.37,1.48-2.33,1.83
				C10.16,88.28,10.27,88.78,10.71,88.62L10.71,88.62z"/>
		</g>
	</g>
</g>
<g>
	<line class="st1" x1="62.82" y1="13.27" x2="72.49" y2="4.01"/>
	<line class="st1" x1="62.82" y1="4.01" x2="72.49" y2="13.27"/>
	<line class="st1" x1="67.66" y1="2.15" x2="67.66" y2="15.35"/>
	<line class="st1" x1="61.63" y1="8.89" x2="73.94" y2="8.64"/>
	<g>
		<g>
			<path d="M72.55,6.65c-0.21-1.09-0.77-2.05-1.63-2.76c-0.21-0.17-0.88,0.12-0.67,0.29c0.83,0.69,1.37,1.6,1.58,2.66
				C71.88,7.11,72.61,6.93,72.55,6.65L72.55,6.65z"/>
		</g>
	</g>
	<g>
		<g>
			<path d="M65.74,4.7c0.99,0.14,1.97,0.07,2.94-0.18c0.42-0.11,0.36-0.36-0.07-0.25c-0.8,0.2-1.59,0.23-2.41,0.11
				C66.03,4.36,65.37,4.65,65.74,4.7L65.74,4.7z"/>
		</g>
	</g>
	<g>
		<g>
			<path d="M61.32,6.76c1.61-0.72,3.01-1.78,4.13-3.14c0.29-0.35-0.41-0.41-0.6-0.18c-1.05,1.27-2.34,2.26-3.84,2.94
				C60.56,6.59,60.96,6.93,61.32,6.76L61.32,6.76z"/>
		</g>
	</g>
	<g>
		<g>
			<path d="M62.95,7.56c0,0.89,0,1.77,0,2.66c0,0.14,0.72,0.03,0.72-0.19c0-0.89,0-1.77,0-2.66C63.67,7.22,62.95,7.33,62.95,7.56
				L62.95,7.56z"/>
		</g>
	</g>
	<g>
		<g>
			<path d="M62.03,12.03c0.81,0.13,1.62,0.27,2.43,0.4c0.16,0.03,0.37,0,0.51-0.09c0.05-0.03,0.26-0.17,0.09-0.2
				c-0.81-0.13-1.62-0.27-2.43-0.4c-0.16-0.03-0.37,0-0.51,0.09C62.07,11.86,61.86,12,62.03,12.03L62.03,12.03z"/>
		</g>
	</g>
	<g>
		<g>
			<path d="M65.97,13.4c1.52,0.12,3.02,0.04,4.52-0.23c0.3-0.05,0.64-0.38,0.13-0.29c-1.39,0.25-2.77,0.32-4.18,0.21
				C66.27,13.08,65.61,13.37,65.97,13.4L65.97,13.4z"/>
		</g>
	</g>
	<g>
		<g>
			<path d="M69.68,12.31c1.12-0.41,2.08-1.13,2.76-2.11c0.19-0.26-0.54-0.2-0.67-0.01c-0.6,0.85-1.4,1.47-2.38,1.83
				C68.92,12.19,69.36,12.43,69.68,12.31L69.68,12.31z"/>
		</g>
	</g>
</g>
<rect x="0" y="0" class="st2" width="106.01" height="106.01"/>
</svg>
